<svg xmlns="http://www.w3.org/2000/svg" viewBox="0 0 429.1 469.24"><g id="Layer_2" data-name="Layer 2"><g id="Layer_4" data-name="Layer 4"><g id="Layer_3" data-name="Layer 3"><polygon points="267.2 182.76 154.58 190.57 133.77 259.88 180.3 304.91 277.28 304.91 284.48 236.04 267.2 182.76"/><path d="M195.87,469.24c-31.23-30-69.66-59.78-103.39-80.79,26.3-49.38,81.2-78.89,113.23-121,19.78,14.26,36.35,5.35,72.24-21.59C278.16,297.64,251.34,426.36,195.87,469.24Z"/><path d="M0,335.31C14.42,294.15,21,246,18.27,205.37c60-1,113,31.77,161.41,37.56,1.59,25.15,17.59,35.05,54.81,51.77C193.8,321.67,68.92,362.8,0,335.31Z"/><path d="M23.23,99.38c36.55-8.54,81.56-26.94,121.66-49.14,24.56,51,22.67,113.26,48.18,158.56-27.29,13.5-27.86,32.31-17.43,73.36C125.64,260,27.58,172.36,23.23,99.38Z"/><path d="M233.23,0c31.23,30,69.66,59.78,103.39,80.79-26.3,49.38-81.2,78.89-113.23,121-19.78-14.26-36.35-5.35-72.24,21.59C150.94,171.6,177.76,42.88,233.23,0Z"/><path d="M429.1,133.93c-14.42,41.16-21,89.33-18.27,129.94-60,1-113-31.77-161.41-37.56-1.59-25.15-17.59-35.05-54.81-51.77C235.3,147.57,360.18,106.44,429.1,133.93Z"/><path d="M405.87,369.86c-36.55,8.54-81.55,26.93-121.66,49.14C259.65,368,261.54,305.74,236,260.44c27.29-13.5,27.86-32.31,17.43-73.36C303.46,209.29,401.52,296.88,405.87,369.86Z"/></g></g></g></svg>