<svg xmlns="http://www.w3.org/2000/svg" viewBox="0 0 1788.11 1955.38"><defs><style>.cls-1{fill:#fff;}</style></defs><g id="Layer_2" data-name="Layer 2"><g id="Layer_4" data-name="Layer 4"><g id="Layer_3" data-name="Layer 3"><g id="Layer_2-2" data-name="Layer 2"><g id="Layer_4-2" data-name="Layer 4"><g id="Layer_3-2" data-name="Layer 3"><polygon class="cls-1" points="602.65 983.61 632.65 1270.59 1036.78 1270.59 1230.67 1082.95 1143.96 794.13 674.65 761.58 602.65 983.61"/><path class="cls-1" d="M629.86,1024.53c149.56,112.26,218.61,149.39,301,90,133.47,175.48,362.25,298.45,471.84,504.22-140.55,87.56-300.7,211.65-430.83,336.67C740.75,1776.69,629,1240.3,629.86,1024.53Z"/><path class="cls-1" d="M811,1228.05c155.1-69.68,221.78-110.93,228.4-215.73C1241.09,988.19,1462,851.63,1712,855.8c-11.37,169.31,16,370,76.14,541.47C1500.91,1511.83,980.52,1340.43,811,1228.05Z"/><path class="cls-1" d="M1056.2,1175.79c43.46-171.06,41.08-249.44-72.64-305.7,106.31-188.77,98.43-448.21,200.77-660.73,167.11,92.51,354.67,169.18,507,204.77C1673.18,718.24,1264.55,1083.45,1056.2,1175.79Z"/><path class="cls-1" d="M1158.25,930.85c-149.56-112.26-218.61-149.39-301-90C723.74,665.4,495,542.43,385.37,336.66,525.93,249.11,686.07,125,816.21,0,1047.36,178.69,1159.12,715.08,1158.25,930.85Z"/><path class="cls-1" d="M977.15,727.33C822.05,797,755.37,838.26,748.75,943.06,547,967.19,326.16,1103.74,76.13,1099.58c11.38-169.23-16-370-76.13-541.48C287.2,443.55,807.59,614.94,977.15,727.33Z"/><path class="cls-1" d="M732,779.58C688.57,950.64,691,1029,804.67,1085.28,698.24,1274.05,706.12,1533.5,603.77,1746c-167.14-92.55-354.66-169.18-507-204.77C114.93,1237.13,523.56,872.13,732,779.58Z"/></g></g></g></g></g></g></svg>